<svg xmlns="http://www.w3.org/2000/svg" viewBox="0 0 64 64">
  <defs>
    <linearGradient id="bg" x1="9" y1="8" x2="55" y2="56" gradientUnits="userSpaceOnUse">
      <stop offset="0" stop-color="#6ee7b7" />
      <stop offset="1" stop-color="#22c55e" />
    </linearGradient>
    <linearGradient id="glow" x1="14" y1="12" x2="50" y2="40" gradientUnits="userSpaceOnUse">
      <stop offset="0" stop-color="#ecfeff" stop-opacity="0.95" />
      <stop offset="1" stop-color="#dcfce7" stop-opacity="0.2" />
    </linearGradient>
    <linearGradient id="bubble" x1="18" y1="20" x2="43" y2="43" gradientUnits="userSpaceOnUse">
      <stop offset="0" stop-color="#ffffff" />
      <stop offset="1" stop-color="#d1fae5" />
    </linearGradient>
    <linearGradient id="leaf" x1="33" y1="11" x2="43" y2="20" gradientUnits="userSpaceOnUse">
      <stop offset="0" stop-color="#34d399" />
      <stop offset="1" stop-color="#16a34a" />
    </linearGradient>
  </defs>
  <rect x="6" y="6" width="52" height="52" rx="16" fill="url(#bg)" />
  <rect x="8" y="8" width="48" height="48" rx="14" fill="url(#glow)" />
  <path
    d="M19.5 23.5a6.5 6.5 0 0 1 6.5-6.5h11.5a6.5 6.5 0 0 1 6.5 6.5v9.8a6.5 6.5 0 0 1-6.5 6.5h-7.4l-5.7 4.6a1.3 1.3 0 0 1-2.1-1v-4a6.4 6.4 0 0 1-2.8-5.3v-11.1z"
    fill="url(#bubble)"
  />
  <circle cx="27.3" cy="28.5" r="1.9" fill="#059669" />
  <circle cx="32" cy="28.5" r="1.9" fill="#059669" />
  <circle cx="36.7" cy="28.5" r="1.9" fill="#059669" />
  <path d="M34 15.8c3.6-4.4 8.2-4.7 11.1-3.8-1.1 5.1-5.2 7.8-9.8 7.8-1.3 0-2.4-.2-3.4-.6.4-1 .9-2.1 2.1-3.4z" fill="url(#leaf)" />
  <path d="M31.6 21.5c2.6-2 5.6-2.4 8.5-2.2-1.4 1.8-3.6 3.1-6.2 3.2-.9 0-1.7-.1-2.3-.3z" fill="#86efac" />
</svg>
